<?xml version="1.0"?>
<svg xmlns="http://www.w3.org/2000/svg" xmlns:xlink="http://www.w3.org/1999/xlink" xmlns:svgjs="http://svgjs.com/svgjs" version="1.1" width="512" height="512" x="0" y="0" viewBox="0 0 512 512" style="enable-background:new 0 0 512 512" xml:space="preserve" class=""><g>
<g xmlns="http://www.w3.org/2000/svg">
	<g>
		<path d="M315.051,264.533c-4.164,28.894-29.022,51.2-59.051,51.2c-30.029,0-54.886-22.306-59.051-51.2H34.133v214.042    C61.269,399.514,150.426,341.333,256,341.333s194.731,58.18,221.867,137.242V264.533H315.051z" fill="#ffffff" data-original="#000000" style="" class=""/>
	</g>
</g>
<g xmlns="http://www.w3.org/2000/svg">
	<g>
		<path d="M214.195,264.533c3.968,19.448,21.197,34.133,41.805,34.133c20.608,0,37.845-14.686,41.805-34.133H214.195z" fill="#ffffff" data-original="#000000" style="" class=""/>
	</g>
</g>
<g xmlns="http://www.w3.org/2000/svg">
	<g>
		<path d="M256,213.333c-20.608,0-37.837,14.686-41.805,34.133h83.61C293.837,228.019,276.599,213.333,256,213.333z" fill="#ffffff" data-original="#000000" style="" class=""/>
	</g>
</g>
<g xmlns="http://www.w3.org/2000/svg">
	<g>
		<polygon points="302.473,443.733 209.527,443.733 167.398,512 344.602,512   " fill="#ffffff" data-original="#000000" style="" class=""/>
	</g>
</g>
<g xmlns="http://www.w3.org/2000/svg">
	<g>
		<path d="M256,358.4c-110.43,0-201.523,67.473-212.267,153.6H147.26l50.304-81.323c1.562-2.492,4.292-4.011,7.236-4.011h102.4    c2.944,0,5.683,1.519,7.236,4.011L364.74,512h103.526C457.523,425.873,366.43,358.4,256,358.4z M281.6,401.067h-51.2    c-4.71,0-8.533-3.814-8.533-8.533c0-4.719,3.823-8.533,8.533-8.533h51.2c4.71,0,8.533,3.814,8.533,8.533    C290.133,397.252,286.31,401.067,281.6,401.067z" fill="#ffffff" data-original="#000000" style="" class=""/>
	</g>
</g>
<g xmlns="http://www.w3.org/2000/svg">
	<g>
		<path d="M256,170.667c-105.574,0-194.731-58.18-221.867-137.242v214.042h162.816c4.164-28.894,29.013-51.2,59.051-51.2    c30.037,0,54.886,22.306,59.051,51.2h162.816V33.425C450.731,112.486,361.574,170.667,256,170.667z" fill="#ffffff" data-original="#000000" style="" class=""/>
	</g>
</g>
<g xmlns="http://www.w3.org/2000/svg">
	<g>
		<path d="M364.74,0l-50.304,81.323c-1.562,2.492-4.292,4.011-7.236,4.011H204.8c-2.944,0-5.675-1.519-7.236-4.011L147.26,0H43.733    C54.477,86.127,145.562,153.6,256,153.6c110.43,0,201.523-67.473,212.267-153.6H364.74z M281.6,128h-51.2    c-4.71,0-8.533-3.814-8.533-8.533s3.823-8.533,8.533-8.533h51.2c4.71,0,8.533,3.814,8.533,8.533S286.31,128,281.6,128z" fill="#ffffff" data-original="#000000" style="" class=""/>
	</g>
</g>
<g xmlns="http://www.w3.org/2000/svg">
	<g>
		<polygon points="167.398,0 209.527,68.267 302.473,68.267 344.602,0   " fill="#ffffff" data-original="#000000" style="" class=""/>
	</g>
</g>
<g xmlns="http://www.w3.org/2000/svg">
</g>
<g xmlns="http://www.w3.org/2000/svg">
</g>
<g xmlns="http://www.w3.org/2000/svg">
</g>
<g xmlns="http://www.w3.org/2000/svg">
</g>
<g xmlns="http://www.w3.org/2000/svg">
</g>
<g xmlns="http://www.w3.org/2000/svg">
</g>
<g xmlns="http://www.w3.org/2000/svg">
</g>
<g xmlns="http://www.w3.org/2000/svg">
</g>
<g xmlns="http://www.w3.org/2000/svg">
</g>
<g xmlns="http://www.w3.org/2000/svg">
</g>
<g xmlns="http://www.w3.org/2000/svg">
</g>
<g xmlns="http://www.w3.org/2000/svg">
</g>
<g xmlns="http://www.w3.org/2000/svg">
</g>
<g xmlns="http://www.w3.org/2000/svg">
</g>
<g xmlns="http://www.w3.org/2000/svg">
</g>
</g></svg>
