<svg xmlns="http://www.w3.org/2000/svg" xmlns:xlink="http://www.w3.org/1999/xlink" xmlns:fi="http://pattern.flaticon.com/" x="0" y="0" width="1400" height="700" viewBox="0 0 1400 700"><rect x="0px" y="0px" width="100%" height="100%" opacity="1" fill="#ff860d"/><defs><g transform="matrix(0.1171875 0 0 0.1171875 150 101)" id="L1_3"><g><g><path d="m16 80h480v288h-480z" fill="#78b9eb"/><path d="m16 368h480v32h-480z" fill="#787680"/><path d="m184 400h144v32h-144z" fill="#3e3d42"/></g><path d="m304 224c0 32.52 6.89 61.56 17.68 80.63a103.98 103.98 0 0 1 -131.36 0c10.79-19.07 17.68-48.11 17.68-80.63s-6.89-61.56-17.68-80.63a103.98 103.98 0 0 1 131.36 0c-10.79 19.07-17.68 48.11-17.68 80.63z" fill="#ff9811"/><g fill="#aa6100"><path d="m360 224a103.745 103.745 0 0 1 -38.32 80.63c-10.79-19.07-17.68-48.11-17.68-80.63s6.89-61.56 17.68-80.63a103.745 103.745 0 0 1 38.32 80.63z"/><path d="m208 224c0 32.52-6.89 61.56-17.68 80.63a103.988 103.988 0 0 1 0-161.26c10.79 19.07 17.68 48.11 17.68 80.63z"/></g></g><g><path d="m496 72h-480a8 8 0 0 0 -8 8v320a8 8 0 0 0 8 8h160v16h-32a8 8 0 0 0 0 16h224a8 8 0 0 0 0-16h-32v-16h160a8 8 0 0 0 8-8v-320a8 8 0 0 0 -8-8zm-176 352h-128v-16h128zm168-32h-464v-16h464zm0-32h-464v-272h464z"/><path d="m256 336a112 112 0 1 0 -112-112 112.127 112.127 0 0 0 112 112zm-8-104v87.664a95.449 95.449 0 0 1 -47.465-17.349c8.983-18.777 14.413-43.685 15.324-70.315zm16 0h32.141c.911 26.63 6.341 51.538 15.324 70.315a95.449 95.449 0 0 1 -47.465 17.349zm0-16v-87.664a95.449 95.449 0 0 1 47.465 17.349c-8.983 18.777-14.413 43.685-15.324 70.315zm-16 0h-32.141c-.911-26.63-6.341-51.538-15.324-70.315a95.449 95.449 0 0 1 47.465-17.349zm-60.156 75.537a95.733 95.733 0 0 1 -27.508-59.537h39.5c-.812 22.468-5.036 43.347-11.992 59.537zm136.312 0c-6.958-16.19-11.18-37.069-11.994-59.537h39.5a95.727 95.727 0 0 1 -27.506 59.537zm27.508-75.537h-39.5c.814-22.468 5.036-43.347 11.994-59.537a95.727 95.727 0 0 1 27.506 59.537zm-163.82-59.537c6.958 16.19 11.18 37.069 11.994 59.537h-39.5a95.733 95.733 0 0 1 27.506-59.537z"/></g></g><g transform="matrix(0.15527187287807465 0 0 0.15527187287807465 302 227.9999995071937)" id="L1_5"><path d="M378.919,42.229c0-11-9-20-20-20H27.5c-11,0-20,9-20,20V252.19c0,11,9,20,20,20h331.419   c11,0,20-9,20-20V42.229z" fill="#00b3e3"/><circle cx="215" cy="156" r="69" fill="#a77f73"/><path d="M291.348,248.289H95.071c-10.493,0-19-8.506-19-19s8.507-19,19-19h196.277c10.493,0,19,8.506,19,19    S301.841,248.289,291.348,248.289z" fill="#0071ce"/><path d="M291.348,248.289H95.071c-10.493,0-19-8.506-19-19s8.507-19,19-19h196.277c10.493,0,19,8.506,19,19    S301.841,248.289,291.348,248.289z" fill="#0071ce"/><g><path d="M320.21,236.789h-9.862c-4.142,0-7.5-3.358-7.5-7.5c0-4.142,3.358-7.5,7.5-7.5h2.362V72.63h-239    v149.158h2.361c4.142,0,7.5,3.358,7.5,7.5c0,4.142-3.358,7.5-7.5,7.5H66.21c-4.142,0-7.5-3.358-7.5-7.5V65.13    c0-4.142,3.358-7.5,7.5-7.5h254c4.142,0,7.5,3.358,7.5,7.5v164.158C327.71,233.431,324.352,236.789,320.21,236.789z" fill="#ffffff"/><path d="M358.919,14.729H27.5c-15.163,0-27.5,12.337-27.5,27.5V252.19c0,15.163,12.337,27.5,27.5,27.5h80.628    c1.514,23.599,1.073,50.6,0.768,69.121c-0.1,6.092-0.187,11.352-0.187,15.379c0,4.142,3.358,7.5,7.5,7.5    c4.142,0,7.5-3.358,7.5-7.5c0-3.543,0.071-8.167,0.158-13.496h34.842v13.496c0,4.142,3.358,7.5,7.5,7.5c4.142,0,7.5-3.358,7.5-7.5    v-13.496h39v13.496c0,4.142,3.358,7.5,7.5,7.5c4.142,0,7.5-3.358,7.5-7.5v-13.496h34.842c0.087,5.329,0.158,9.952,0.158,13.496    c0,4.142,3.358,7.5,7.5,7.5s7.5-3.358,7.5-7.5c0-4.027-0.086-9.287-0.186-15.379c-0.304-18.521-0.746-45.522,0.768-69.121h80.628    c15.163,0,27.5-12.337,27.5-27.5V42.229C386.419,27.066,374.082,14.729,358.919,14.729z M158.71,335.694h-34.617    c0.078-6.418,0.128-13.342,0.097-20.502h34.52V335.694z M158.71,300.192h-34.723c-0.16-6.889-0.426-13.8-0.841-20.502h35.563    V300.192z M158.71,264.69h-36.811c-0.332-3.074-0.709-6.049-1.136-8.901h37.946V264.69z M212.71,335.694h-39v-20.502h39V335.694z     M212.71,300.192h-39V279.69h39V300.192z M212.71,264.69h-39v-8.901h39V264.69z M227.71,335.694v-20.502h34.521    c-0.032,7.16,0.018,14.084,0.096,20.502H227.71z M262.432,300.192H227.71V279.69h35.564    C262.858,286.392,262.592,293.303,262.432,300.192z M264.52,264.69h-36.81v-8.901h37.947    C265.229,258.641,264.852,261.616,264.52,264.69z M274.72,240.789c-0.032-0.001-0.063,0-0.094,0h-54.368    c-0.016,0-0.032-0.002-0.048-0.002s-0.032,0.002-0.048,0.002h-53.903c-0.016,0-0.032-0.002-0.048-0.002s-0.032,0.002-0.048,0.002    h-54.338c-0.048,0-0.095-0.001-0.143,0H95.071c-6.341,0-11.5-5.159-11.5-11.5c0-6.341,5.159-11.5,11.5-11.5h196.277    c6.341,0,11.5,5.159,11.5,11.5c0,6.341-5.159,11.5-11.5,11.5H274.72z M255.348,165.591c5.351-8.12,13.158-14.351,22.272-17.776    c0.372,2.75,0.581,5.55,0.581,8.4c0,6.293-0.957,12.448-2.751,18.309L255.348,165.591z M269.365,188.234    c-3.218,5.376-7.262,10.286-12.049,14.555h-7.979c-2.094-7.738-2.12-15.788-0.097-23.498L269.365,188.234z M241.488,159.432    l-15.81-7.025l22.11-49.757c11.708,7.023,20.924,17.775,26.018,30.602C260.321,137.933,248.853,147.199,241.488,159.432z     M233.939,202.789h-30.648l16.296-36.674l15.813,7.026C232.444,182.803,231.951,192.933,233.939,202.789z M211.97,146.316    l-15.809-7.025c4.145-13.667,3.335-28.392-2.232-41.542c6.805-2.552,14.166-3.956,21.851-3.956c6.37,0,12.517,0.964,18.311,2.745    L211.97,146.316z M205.879,160.023l-19.003,42.766h-12.63c-7.361-6.565-12.973-14.65-16.513-23.603    c13.494-4.68,24.969-13.95,32.337-26.188L205.879,160.023z M182.301,133.131l-20.086-8.926    c4.647-7.748,10.925-14.407,18.358-19.503C184.134,113.758,184.74,123.723,182.301,133.131z M176.21,146.839    c-5.349,8.118-13.155,14.349-22.267,17.775c-0.372-2.765-0.585-5.566-0.585-8.399c0-6.37,0.964-12.518,2.745-18.311    L176.21,146.839z M371.419,252.19c0,6.892-5.607,12.5-12.5,12.5h-79.315c0.358-3.105,0.767-6.083,1.232-8.901h10.513    c14.612,0,26.5-11.888,26.5-26.5c0-14.612-11.888-26.5-26.5-26.5h-13.712c10.027-13.287,15.565-29.54,15.565-46.574    c0-42.691-34.731-77.422-77.422-77.422s-77.422,34.731-77.422,77.422c0,17.025,5.541,33.284,15.568,46.574H95.071    c-14.612,0-26.5,11.888-26.5,26.5c0,14.612,11.888,26.5,26.5,26.5h10.513c0.465,2.818,0.874,5.796,1.231,8.901H27.5    c-6.893,0-12.5-5.608-12.5-12.5V42.229c0-6.893,5.607-12.5,12.5-12.5h331.419c6.893,0,12.5,5.607,12.5,12.5V252.19z"/></g></g><g transform="matrix(0.1171875 0 0 0.1171875 120 309)" id="L1_7"><circle cx="256" cy="256" r="256" fill="#52aade"/><path d="M255.837,78.38L255.837,78.38c-4.499,0.01-9.894,0.259-10.749,0.348l0,0  c-46.971,2.865-89.079,23.721-119.511,55.779c-0.001,0.001-0.002,0.002-0.003,0.003C97.55,164.03,79.24,203.301,76.486,246.982l0,0  c-0.172,1.431-0.515,9.722-0.28,17.115c1.371,44.776,19.15,86.246,48.833,117.786c0.002,0.002,0.004,0.005,0.006,0.007l0.006,0.006  c2.479,2.633,5.022,5.165,7.615,7.615l122.478,122.478C255.43,511.99,255.714,512,256,512  c140.181,0,254.025-112.676,255.954-252.398c-62.006-62.006-131.108-131.108-132.31-132.31l-0.052,0.052  C345.571,95.395,302.372,78.31,255.837,78.38z" fill="#006eb3"/><circle cx="256" cy="258" r="180" fill="#f88800"/><path d="M256.218,78.376c-0.127,0-0.254,0.005-0.381,0.005v360.206c0.127,0,0.254,0.005,0.381,0.005  c99.471,0,180.108-80.637,180.108-180.108S355.689,78.376,256.218,78.376z" fill="#b46119"/><path d="M402.887,363.035c-44.377-10.079-78.431-47.646-83.195-93.792h116.306  c0.21-3.561,0.329-7.146,0.329-10.759c0-3.865-0.136-7.697-0.376-11.502H319.692c4.747-45.985,38.578-83.454,82.728-93.69  c-4.765-6.611-9.962-12.889-15.56-18.785c-48.774,15.77-85.015,59.664-89.52,112.475h-29.991V78.728  c-3.683-0.225-7.391-0.352-11.13-0.352c-3.739,0-7.448,0.128-11.13,0.352v168.254h-29.991  c-4.505-52.811-40.746-96.705-89.52-112.475c-5.597,5.896-10.795,12.174-15.56,18.785c44.15,10.236,77.981,47.705,82.728,93.69  H76.486c-0.24,3.804-0.376,7.637-0.376,11.502c0,3.613,0.119,7.199,0.329,10.759h116.306c-4.764,46.146-38.818,83.712-83.195,93.791  c4.739,6.636,9.921,12.933,15.496,18.856c49.042-15.622,85.53-59.644,90.051-112.647h29.991v168.996  c3.683,0.225,7.391,0.352,11.13,0.352c3.739,0,7.448-0.128,11.13-0.352V269.243h29.991c4.521,53.003,41.009,97.025,90.051,112.647  C392.965,375.967,398.148,369.671,402.887,363.035z" fill="#b56119"/><path d="M267.348,438.239L267.348,438.239V269.243h29.991c4.521,53.003,41.009,97.025,90.051,112.647  c0.755-0.843,7.877-8.186,15.496-18.856c-44.377-10.079-78.431-47.646-83.195-93.792h116.306c0,0,0.329-5.145,0.329-10.759  c0-5.912-0.376-11.502-0.376-11.502H319.692c4.747-45.985,38.578-83.454,82.728-93.69c-0.001-0.001-0.002-0.003-0.003-0.004  c-4.852-6.731-10.231-13.171-15.557-18.781c-48.774,15.77-85.015,59.664-89.52,112.475h-29.991V78.728c0,0-5.368-0.352-11.13-0.352  c-0.128,0-0.254,0.006-0.381,0.006v360.204c0.127,0,0.254,0.006,0.381,0.006C259.974,438.592,263.994,438.444,267.348,438.239z" fill="#68390a"/></g></defs><g fi:class="KUsePattern"><pattern id="pattern_L1_3" width="350" height="350" patternUnits="userSpaceOnUse"><use xlink:href="#L1_3" x="-350" y="-350"/><use xlink:href="#L1_3" x="0" y="-350"/><use xlink:href="#L1_3" x="350" y="-350"/><use xlink:href="#L1_3" x="-350" y="0"/><use xlink:href="#L1_3" x="0" y="0"/><use xlink:href="#L1_3" x="350" y="0"/><use xlink:href="#L1_3" x="-350" y="350"/><use xlink:href="#L1_3" x="0" y="350"/><use xlink:href="#L1_3" x="350" y="350"/></pattern><rect x="0" y="0" width="100%" height="100%" fill="url(#pattern_L1_3)"/></g><g fi:class="KUsePattern"><pattern id="pattern_L1_5" width="350" height="350" patternUnits="userSpaceOnUse"><use xlink:href="#L1_5" x="-350" y="-350"/><use xlink:href="#L1_5" x="0" y="-350"/><use xlink:href="#L1_5" x="350" y="-350"/><use xlink:href="#L1_5" x="-350" y="0"/><use xlink:href="#L1_5" x="0" y="0"/><use xlink:href="#L1_5" x="350" y="0"/><use xlink:href="#L1_5" x="-350" y="350"/><use xlink:href="#L1_5" x="0" y="350"/><use xlink:href="#L1_5" x="350" y="350"/></pattern><rect x="0" y="0" width="100%" height="100%" fill="url(#pattern_L1_5)"/></g><g fi:class="KUsePattern"><pattern id="pattern_L1_7" width="350" height="350" patternUnits="userSpaceOnUse"><use xlink:href="#L1_7" x="-350" y="-350"/><use xlink:href="#L1_7" x="0" y="-350"/><use xlink:href="#L1_7" x="350" y="-350"/><use xlink:href="#L1_7" x="-350" y="0"/><use xlink:href="#L1_7" x="0" y="0"/><use xlink:href="#L1_7" x="350" y="0"/><use xlink:href="#L1_7" x="-350" y="350"/><use xlink:href="#L1_7" x="0" y="350"/><use xlink:href="#L1_7" x="350" y="350"/></pattern><rect x="0" y="0" width="100%" height="100%" fill="url(#pattern_L1_7)"/></g></svg>