<svg id="Layer_1" enable-background="new 0 0 256 256" height="512" viewBox="0 0 256 256" width="512" xmlns="http://www.w3.org/2000/svg"><g><g><path d="m246.036 253v-75.416c0-13.255-10.745-24-24-24h-11.887v99.416z" fill="#f9cfcf"/></g><g><path d="m246.036 255h-35.888c-1.104 0-2-.896-2-2v-99.416c0-1.104.896-2 2-2h11.888c14.337 0 26 11.664 26 26v75.416c0 1.104-.895 2-2 2zm-33.888-4h31.888v-73.416c0-12.131-9.869-22-22-22h-9.888z" fill="#3762cc"/></g><g><path d="m95.368 253v-75.416c0-13.255 10.745-24 24-24h11.887v99.416z" fill="#f9cfcf"/></g><g><path d="m131.255 255h-35.887c-1.104 0-2-.896-2-2v-75.416c0-14.336 11.663-26 26-26h11.887c1.104 0 2 .896 2 2v99.416c0 1.104-.896 2-2 2zm-33.887-4h31.887v-95.416h-9.887c-12.131 0-22 9.869-22 22z" fill="#3762cc"/></g><g><path d="m228.597 253v-38.196l-1.417-2.065c-7.185-10.473-11.031-22.875-11.031-35.576v-23.578h-90.894v23.583c0 12.698-3.845 25.098-11.029 35.568l-1.418 2.066v38.198z" fill="#6bdddd"/></g><g><path d="m158.608 184.784 12.095 5.549 12.095-5.549c12.157-5.578 20.012-17.824 20.012-31.199h-64.213c-.001 13.375 7.854 25.621 20.011 31.199z" fill="#ffea92"/></g><g><path d="m144.803 125.19v28.395c0 10.955 6.383 20.906 16.34 25.474l9.56 4.386 9.56-4.386c9.957-4.568 16.34-14.519 16.34-25.474v-28.395z" fill="#f9cfcf"/></g><g><path d="m195.778 216.674h-50.15c-1.22 0-2.209-.989-2.209-2.209v-12.814c0-1.22.989-2.209 2.209-2.209h50.15c1.22 0 2.209.989 2.209 2.209v12.814c0 1.219-.989 2.209-2.209 2.209z" fill="#e0ebfc"/></g><g><g><path d="m153.408 252.129c-1.444-1.302-.991-2.885-.249-4.608l8.802-19.366h-11.847c-1.848 0-2.775-1.021-2.775-2.527 0-1.556.899-2.589 2.796-2.589h15.016c1.27 0 2.23.211 2.879.632s.973 1.122.973 2.102c0 2.169-.856 3.579-10.522 25.331-1.144 2.369-3.678 2.284-5.073 1.025z" fill="#ffea92"/></g><g><path d="m189.116 240.789-8.513 7.332h11.122c1.28 0 1.864 1.199 1.864 2.403 0 1.199-.605 2.465-1.864 2.465h-14.913c-.953 0-1.698-.3-2.237-.901-.538-.601-.808-1.329-.808-2.185 0-1.105.4-2.064 1.201-2.879 11.542-11.431 13.111-12.355 13.111-15.12 0-2.424-2.054-4.039-4.453-4.039-2.982 0-4.757 1.344-6.255 2.175-.518.296-1.466.218-2.351-.746-.546-.594-.818-1.229-.818-1.906 0-.773.386-1.388 1.16-1.843 2.756-1.636 5.65-2.568 8.886-2.568 2.602 0 5.158.766 7.115 2.537 1.829 1.658 2.703 3.889 2.703 6.12 0 3.259-1.65 6.311-4.95 9.155z" fill="#ffea92"/></g></g><g><path d="m228.597 253v-38.196l-1.417-2.065c-2.536-3.695-4.641-7.614-6.319-11.692v51.953z" fill="#4671c6"/></g><g><path d="m120.545 253v-51.957c-1.678 4.079-3.784 7.999-6.321 11.695l-1.416 2.063v38.199z" fill="#4671c6"/></g><g><path d="m120.38 153.584v23.582c0 10.068-2.627 19.929-7.571 28.635v16.516c10.272-14.97 16.316-30.036 16.316-49.336v-19.398c-3.235.001-5.487.001-8.745.001z" fill="#ffea92"/></g><g><path d="m228.596 205.804c0-.001 0-.002 0-.002-4.944-8.706-7.571-18.567-7.571-28.635v-23.582h-.001c-3.287 0-5.43 0-8.744 0v19.398c0 19.3 6.044 34.366 16.316 49.336 0-.784 0-4.064 0-7.515z" fill="#ffea92"/></g><g><path d="m228.597 255h-115.788c-1.104 0-2-.896-2-2v-47.198c0-.346.09-.687.261-.988 4.782-8.421 7.311-17.981 7.311-27.647v-23.583c0-1.104.896-2 2-2h22.423v-26.395c0-1.104.896-2 2-2h51.8c1.104 0 2 .896 2 2v26.395h22.422c1.104 0 2 .896 2 2v23.583c0 9.667 2.528 19.229 7.312 27.649.171.301.261.642.261.988v47.196c-.002 1.104-.898 2-2.002 2zm-113.788-4h111.788v-44.672c-4.956-8.909-7.572-18.979-7.572-29.161v-21.583h-22.422c-1.104 0-2-.896-2-2v-26.395h-47.8v26.395c0 1.104-.896 2-2 2h-22.423v21.583c0 10.18-2.616 20.25-7.571 29.158z" fill="#3762cc"/></g><g><path d="m231.934 46.449c0-23.996-19.453-43.449-43.449-43.449h-77.013c-1.105 0-2 .896-2 2v10h-5.16c-1.104 0-2 .896-2 2v24.471c0 8.992 2.633 17.365 7.16 24.404v6.926c0 33.843 27.44 61.231 61.231 61.231 27.48 0 50.731-18.102 58.481-43.032h2.75z" fill="#4671c6"/></g><g><path d="m170.703 136.032c-34.866 0-63.231-28.366-63.231-63.231v-6.345c-4.687-7.494-7.16-16.119-7.16-24.985v-24.471c0-2.206 1.794-4 4-4h3.16v-8c0-2.206 1.794-4 4-4h77.014c25.061 0 45.448 20.388 45.448 45.449v44.551c0 1.104-.896 2-2 2h-1.295c-8.67 25.801-32.572 43.032-59.936 43.032zm-66.391-119.032v24.471c0 8.295 2.366 16.36 6.843 23.323.207.323.317.698.317 1.082v6.925c0 32.66 26.571 59.231 59.231 59.231 26.098 0 48.832-16.728 56.57-41.626.261-.836 1.034-1.406 1.91-1.406h.75v-42.551c.001-22.855-18.593-41.449-41.448-41.449h-77.014v10c0 1.104-.896 2-2 2z" fill="#3762cc"/></g><g><path d="m222.854 76.94v-4.883c0-.159-.01-.315-.012-.474h-72.264c-13.462 0-24.375-10.913-24.375-24.375v-2.105c-4.851 7.848-7.651 17.076-7.651 26.954v4.883c-9.056-.184-16.24 7.03-16.24 15.75 0 9.312 8.129 16.677 17.618 15.674 5.382 22.865 26.065 39.9 50.773 39.9 24.711 0 45.392-17.037 50.773-39.9 9.476 1.002 17.618-6.349 17.618-15.674 0-8.724-7.19-15.933-16.24-15.75z" fill="#f9cfcf"/></g><g><path d="m170.721 123.527c-5.004 0-9.649-1.791-12.746-4.912-.778-.784-.772-2.051.012-2.829s2.052-.772 2.828.011c2.351 2.37 5.962 3.729 9.905 3.729 3.914 0 7.507-1.359 9.858-3.729.776-.784 2.044-.79 2.828-.011s.789 2.044.012 2.829c-3.098 3.121-7.726 4.912-12.697 4.912z" fill="#3762cc"/></g><g><path d="m197.778 103.43c-3.64 0-6.592-2.951-6.592-6.592v-7.031c0-3.64 2.951-6.592 6.592-6.592 3.64 0 6.592 2.951 6.592 6.592v7.031c-.001 3.641-2.952 6.592-6.592 6.592z" fill="#3762cc"/></g><g><path d="m143.615 103.43c-3.64 0-6.592-2.951-6.592-6.592v-7.031c0-3.64 2.951-6.592 6.592-6.592 3.64 0 6.592 2.951 6.592 6.592v7.031c-.001 3.641-2.952 6.592-6.592 6.592z" fill="#3762cc"/></g><g><path d="m170.703 150.265c-24.731 0-46.004-16.285-52.31-39.812-4.526.033-8.858-1.591-12.202-4.601-3.737-3.362-5.88-8.16-5.88-13.162 0-4.788 1.892-9.279 5.327-12.645 2.975-2.915 6.792-4.664 10.913-5.035v-2.954c0-9.908 2.749-19.593 7.95-28.006.47-.76 1.384-1.118 2.248-.872.859.244 1.453 1.03 1.453 1.924v2.105c0 12.337 10.037 22.375 22.375 22.375h72.264c1.1 0 1.993.888 2 1.988l.005.167c.004.106.007.212.007.32v2.954c4.121.371 7.938 2.12 10.913 5.036 3.436 3.366 5.327 7.856 5.327 12.644 0 5.002-2.143 9.799-5.878 13.161-3.346 3.01-7.689 4.596-12.203 4.602-6.306 23.526-27.578 39.811-52.309 39.811zm-50.771-43.901c.917 0 1.73.631 1.945 1.542 5.315 22.585 25.394 38.358 48.826 38.358s43.511-15.773 48.826-38.358c.231-.981 1.148-1.642 2.157-1.531 3.966.416 7.918-.856 10.854-3.498 2.894-2.604 4.554-6.317 4.554-10.188 0-3.704-1.466-7.18-4.126-9.787-2.688-2.633-6.27-4.036-10.073-3.964-.532.021-1.057-.194-1.44-.571s-.601-.891-.601-1.429v-3.357h-70.275c-12.811 0-23.518-9.181-25.887-21.309-2.722 6.209-4.14 12.938-4.14 19.783v4.883c0 .538-.217 1.052-.601 1.429s-.904.595-1.44.571c-3.784-.074-7.387 1.331-10.073 3.963-2.66 2.607-4.126 6.084-4.126 9.788 0 3.87 1.66 7.583 4.555 10.188 2.935 2.641 6.892 3.912 10.854 3.497.07-.006.14-.01.211-.01z" fill="#3762cc"/></g><g><g><path d="m68.754 238.96h26.613v14.04h-26.613z" fill="#f9cfcf"/></g><g><path d="m95.367 255h-26.613c-1.104 0-2-.896-2-2v-14.041c0-1.104.896-2 2-2h26.613c1.104 0 2 .896 2 2v14.041c0 1.104-.895 2-2 2zm-24.613-4h22.613v-10.041h-22.613z" fill="#3762cc"/></g><g><path d="m94.951 202.545h-20.089v-21.495c0-2.973-2.41-5.383-5.383-5.383s-5.383 2.41-5.383 5.383v26.571 31.709c0 2.803 2.272 5.075 5.075 5.075h25.779c2.803 0 5.075-2.272 5.075-5.075v-31.709c.001-2.804-2.272-5.076-5.074-5.076z" fill="#f9cfcf"/></g><g><path d="m94.95 246.405h-25.779c-3.901 0-7.075-3.174-7.075-7.075v-58.28c0-4.071 3.312-7.383 7.383-7.383s7.383 3.312 7.383 7.383v19.496h18.088c3.901 0 7.075 3.174 7.075 7.075v31.709c0 3.901-3.173 7.075-7.075 7.075zm-25.471-68.738c-1.865 0-3.383 1.518-3.383 3.383v58.28c0 1.696 1.38 3.075 3.075 3.075h25.779c1.695 0 3.075-1.379 3.075-3.075v-31.709c0-1.696-1.38-3.075-3.075-3.075h-20.089c-1.104 0-2-.896-2-2v-21.496c0-1.866-1.517-3.383-3.382-3.383z" fill="#3762cc"/></g><g><g><path d="m117.944 81.44c-10.808-15.069-28.46-24.895-48.419-24.895-32.809 0-59.561 26.611-59.561 59.561 0 .009.001.017.001.026.02 32.638 26.454 59.535 59.561 59.535 48.627 0 76.36-55.27 48.418-94.227z" fill="#f9a7a7"/></g><g><path d="m22.271 153.702c-.574 0-1.145-.246-1.54-.723-.705-.85-.588-2.111.262-2.816 10.178-8.447 16.016-20.861 16.016-34.058 0-13.164-5.813-25.558-15.951-34.004-.849-.707-.963-1.968-.256-2.817.707-.848 1.968-.964 2.816-.256 11.052 9.208 17.391 22.722 17.391 37.077 0 14.391-6.364 27.926-17.461 37.136-.374.31-.827.461-1.277.461z" fill="#3762cc"/></g><g><path d="m109.162 162.112c-.204 0-.411-.031-.616-.098-19.968-6.462-33.384-24.912-33.384-45.909 0-20.953 13.379-39.39 33.29-45.878 1.054-.344 2.18.232 2.521 1.282.343 1.05-.231 2.179-1.281 2.521-18.262 5.951-30.53 22.859-30.53 42.076 0 19.257 12.304 36.177 30.616 42.104 1.051.34 1.627 1.468 1.287 2.519-.274.845-1.058 1.383-1.903 1.383z" fill="#3762cc"/></g><g><path d="m68.37 177.117c-.669 0-1.323-.336-1.701-.946-9.936-16.018-15.407-37.349-15.407-60.065 0-22.751 5.486-44.105 15.447-60.129.583-.938 1.816-1.226 2.754-.643s1.226 1.816.643 2.754c-9.572 15.398-14.844 36.002-14.844 58.017 0 21.981 5.258 42.564 14.806 57.957.583.938.294 2.171-.645 2.754-.329.204-.694.301-1.053.301z" fill="#3762cc"/></g><g><path d="m69.525 125.947c-21.125 0-41.738-2.682-59.611-7.756-1.063-.301-1.68-1.407-1.378-2.47.302-1.062 1.406-1.679 2.47-1.377 17.522 4.974 37.759 7.604 58.52 7.604 20.825 0 41.115-2.645 58.679-7.649 1.058-.303 2.168.313 2.472 1.375.303 1.062-.313 2.168-1.376 2.471-17.915 5.104-38.585 7.802-59.776 7.802z" fill="#3762cc"/></g><g><path d="m69.525 177.667c-33.912 0-61.52-27.586-61.561-61.5-.001-.021-.001-.043-.001-.062 0-33.945 27.616-61.562 61.562-61.562 19.78 0 38.487 9.619 50.043 25.73 13.45 18.752 15.202 43.266 4.57 63.975-10.742 20.926-31.158 33.419-54.613 33.419zm-57.561-61.596c.001.021.001.042.001.06.019 31.725 25.841 57.535 57.561 57.535 21.925 0 41.011-11.68 51.055-31.245 9.943-19.368 8.311-42.289-4.262-59.817-10.807-15.065-28.299-24.06-46.794-24.06-31.727 0-57.543 25.804-57.561 57.527z" fill="#3762cc"/></g></g></g></g></svg>